<?xml version="1.0" encoding="UTF-8"?>
<svg width="100mm" height="100mm" version="1.1" viewBox="0 0 100 100" xml:space="preserve" xmlns="http://www.w3.org/2000/svg"><path d="m7.4847 91.697c-0.95514-0.31127-1.7861-1.0494-2.2176-1.9699-0.5244-1.2797-0.2012-2.5633 0.32085-3.7848 2.9209-6.8857 7.5751-13.993 12.555-19.173l0.8951-0.93103-0.37456-0.86353c-0.81712-1.8838-1.5645-4.4997-1.9144-6.7005-0.93117-5.8569-0.14641-11.971 2.2592-17.603 1.7518-4.1009 4.6586-8.1721 7.4266-10.402 3.8295-3.0847 9.4103-5.3029 17.424-6.9254 3.2086-0.64965 6.1139-1.1032 13.237-2.0663 11.861-1.6038 13.889-2.1192 19.622-4.9862 3.7948-1.8976 8.0387-4.4715 11.686-7.0503 1.1236-0.7943 1.4373-1.0998 2.6929-1.0402 1.1062 0.05246 1.6267 0.21444 2.2829 0.71045 1.3976 1.0563 1.6202 2.0795 1.6197 7.4467 0 5.0128-0.43032 9.2862-1.424 14.156-3.7591 18.421-14.019 33.382-29.862 43.546-11.657 7.4784-22.215 9.2801-31.155 5.3164-3.0908-1.3704-6.6105-3.9691-8.8301-6.5194l-0.6894-0.79215-0.3952 0.43508c-4.1383 4.5559-8.208 10.915-10.4 16.251-0.26874 0.65413-0.60755 1.3625-0.75292 1.5742-0.33686 0.49049-0.93421 0.98021-1.5117 1.2393-0.56543 0.2537-1.9035 0.32452-2.4942 0.13201zm38.213-17.743c4.8176-0.83524 10.079-3.1736 15.581-6.9241 6.7121-4.576 12.276-10.147 16.454-16.477 5.2688-7.9816 8.5799-17.326 9.6897-27.346 0.17945-1.6202 0.40742-4.7326 0.35079-4.7893-0.01574-0.01574-0.58538 0.30665-1.2659 0.71643-4.6631 2.808-9.3662 5.1287-12.773 6.3028-3.3852 1.1665-6.5039 1.7571-16.132 3.055-9.7996 1.3209-13.978 2.0998-18.338 3.4181-2.7403 0.82857-5.5108 2.0517-7.233 3.1931-2.1874 1.4498-4.2075 3.9568-5.8203 7.2233-1.8012 3.6481-2.6016 7.0732-2.599 11.122 0.0017 2.4269 0.29835 4.5185 0.94089 6.6308l0.19954 0.65593 0.79854-0.59857c1.2147-0.91049 3.8951-2.6636 5.0961-3.333l1.0719-0.59749 0.22952-0.6894c0.12624-0.37917 1.3106-4.1226 2.6319-8.3188 1.3882-4.4087 2.5221-7.8553 2.6862-8.1645 0.33336-0.62841 0.8983-1.155 1.6187-1.509 1.0326-0.39398 2.2001-0.37498 3.0564 0.04397 0.72887 0.35882 1.3744 1.0163 1.7184 1.7502 0.2614 0.94556 0.37673 1.4444 0.23126 2.4559-0.27132 1.6991-1.5692 4.9177-1.5692 4.9177-0.86304 2.7048-1.5575 4.93-1.5431 4.945 0.05731 0.06006 4.2634-2.2221 7.3763-4.0023l1.859-1.0631 0.13314-0.46834c0.07322-0.25759 0.8035-2.8468 1.6228-5.7538 0.81933-2.907 1.5912-5.4873 1.7153-5.7341 0.30702-0.61056 0.97347-1.2537 1.6363-1.5792 1.0418-0.37973 2.1961-0.45714 3.1046-6.95e-4 1.3945 0.70614 2.2409 2.2815 2.0036 3.7291-0.06484 0.39546-0.58045 2.3003-1.078 3.9825-0.14729 0.49797 9.4323-6.3318 13.393-9.5487 1.902-1.5447 2.6797-1.8473 4.0266-1.5664 1.1325 0.23613 1.9743 0.88122 2.5255 1.9352 0.41678 1.0475 0.47426 2.1956 0.02018 3.1279-0.33305 0.67834-0.74125 1.0869-2.4414 2.4435-3.3161 2.6459-7.8957 5.9829-11.858 8.6403l-1.4248 0.95561 1.1862 0.11396c0.65244 0.06267 1.3828 0.17922 1.6229 0.259 0.99923 0.33189 1.9031 1.2657 2.2492 2.3237 0.24368 0.74501 0.15995 1.9381-0.18558 2.6444-0.32343 0.66106-0.96562 1.322-1.5938 1.6403-0.96963 0.49135-1.1227 0.48911-7.586-0.11097l-5.8697-0.54496-1.8076 1.0298c-0.99421 0.56638-2.634 1.478-3.644 2.0259-2.7237 1.4775-2.7629 1.5008-2.6136 1.5518 0.07357 0.02512 1.7056 0.29811 3.6267 0.60668 1.9211 0.30856 3.6774 0.60232 3.9028 0.65279 1.7059 0.382 3.0011 2.3341 2.6837 4.0447-0.22119 1.1917-1.0124 2.2314-2.0629 2.7108-1.0434 0.4761-0.9878 0.48172-10.472-1.0596-4.6875-0.76177-8.6116-1.385-8.7204-1.385-0.34418 0-3.1041 1.7914-4.8897 3.1739l-0.89915 0.69613 0.20828 0.29406c0.3294 0.46505 2.1613 2.2584 2.9688 2.9063 2.5148 2.0178 5.2098 3.2317 8.2754 3.7274 1.1183 0.18082 4.6963 0.13139 5.9263-0.0819z"/></svg>
